<?xml version="1.0" encoding="utf-8"?>
<!-- Generator: Adobe Illustrator 22.1.0, SVG Export Plug-In . SVG Version: 6.00 Build 0)  -->
<svg version="1.1" id="Layer_1" xmlns="http://www.w3.org/2000/svg" xmlns:xlink="http://www.w3.org/1999/xlink" x="0px" y="0px"
	 viewBox="0 0 32 32" style="enable-background:new 0 0 32 32;" xml:space="preserve">
<style type="text/css">
	.st0{fill:none;}
	.st1{fill:#0AB0C1;}
	.st2{fill:#F0C71D;}
	.st3{fill:#7C9ACE;}
	.st4{fill:#C28BBE;}
	.st5{fill:#72BB75;}
	.st6{fill:#FBFCFD;}
	.st7{fill:#F27E7D;}
	.st8{fill:#FFFFFF;}
	.st9{fill:#5EB55F;}
	.st10{fill:#F3C61A;}
	.st11{fill:#4292CF;}
	.st12{fill:#9B7BB8;}
</style>
<path class="st0" d="M11.2,16c0-2.8,1.1-5.4,3-7.3c-1.2-0.6-2.5-1-3.8-1c-4.6,0-8.3,3.7-8.3,8.3s3.7,8.3,8.3,8.3
	c1.3,0,2.7-0.3,3.8-1C12.3,21.4,11.2,18.8,11.2,16z"/>
<path class="st0" d="M17.8,23.3c1.2,0.6,2.5,1,3.8,1c4.6,0,8.3-3.7,8.3-8.3s-3.7-8.3-8.3-8.3c-1.4,0-2.7,0.3-3.8,1
	c1.9,1.9,3,4.5,3,7.3C20.8,18.8,19.7,21.4,17.8,23.3z"/>
<path class="st1" d="M16,22c0,0,0.1-0.1,0.1-0.1c0.1-0.1,0.2-0.2,0.3-0.3c0.1-0.1,0.2-0.2,0.3-0.4c0.1-0.1,0.2-0.2,0.2-0.3
	c0.1-0.1,0.2-0.3,0.3-0.4c0.1-0.1,0.1-0.2,0.2-0.3c0.1-0.1,0.2-0.3,0.2-0.4c0.1-0.1,0.1-0.2,0.2-0.3c0.1-0.2,0.1-0.3,0.2-0.5
	c0-0.1,0.1-0.2,0.1-0.3c0.1-0.2,0.1-0.3,0.1-0.5c0-0.1,0.1-0.2,0.1-0.3c0-0.2,0.1-0.4,0.1-0.6c0-0.1,0-0.2,0-0.3
	c0-0.3,0.1-0.6,0.1-0.9c0-0.3,0-0.6-0.1-0.9c0-0.1,0-0.2,0-0.3c0-0.2-0.1-0.4-0.1-0.6c0-0.1-0.1-0.2-0.1-0.3c0-0.2-0.1-0.3-0.1-0.5
	c0-0.1-0.1-0.2-0.1-0.3c-0.1-0.2-0.1-0.3-0.2-0.5c-0.1-0.1-0.1-0.2-0.2-0.3c-0.1-0.1-0.2-0.3-0.2-0.4c-0.1-0.1-0.1-0.2-0.2-0.3
	c-0.1-0.1-0.2-0.3-0.3-0.4c-0.1-0.1-0.2-0.2-0.2-0.3c-0.1-0.1-0.2-0.3-0.3-0.4c-0.1-0.1-0.2-0.2-0.3-0.3c0,0-0.1-0.1-0.1-0.1
	c-1.7,1.6-2.6,3.7-2.6,6.1C13.4,18.3,14.3,20.5,16,22z"/>
<path class="st2" d="M18.6,16c0,0.3,0,0.6-0.1,0.9C18.6,16.6,18.6,16.3,18.6,16z"/>
<path class="st2" d="M18.1,19c-0.1,0.2-0.1,0.3-0.2,0.5C18,19.3,18,19.1,18.1,19z"/>
<path class="st2" d="M18.4,18.1c0,0.2-0.1,0.3-0.1,0.5C18.3,18.5,18.3,18.3,18.4,18.1z"/>
<path class="st2" d="M18.6,17.2c0,0.2-0.1,0.4-0.1,0.6C18.5,17.6,18.5,17.4,18.6,17.2z"/>
<path class="st2" d="M18.5,14.2c0,0.2,0.1,0.4,0.1,0.6C18.5,14.6,18.5,14.4,18.5,14.2z"/>
<path class="st2" d="M17,11c0.1,0.1,0.2,0.3,0.3,0.4C17.2,11.3,17.1,11.2,17,11z"/>
<path class="st2" d="M16.4,10.4c0.1,0.1,0.2,0.2,0.3,0.4C16.6,10.6,16.5,10.5,16.4,10.4z"/>
<path class="st2" d="M16,9.9C16,9.9,16,9.9,16,9.9c0,0.1,0.1,0.1,0.1,0.1C16.1,10,16,10,16,9.9z"/>
<path class="st2" d="M17.5,11.8c0.1,0.1,0.2,0.3,0.2,0.4C17.6,12.1,17.6,11.9,17.5,11.8z"/>
<path class="st2" d="M17.9,12.6c0.1,0.2,0.1,0.3,0.2,0.5C18,12.9,18,12.7,17.9,12.6z"/>
<path class="st2" d="M18.2,13.4c0.1,0.2,0.1,0.3,0.1,0.5C18.3,13.7,18.3,13.5,18.2,13.4z"/>
<path class="st2" d="M18.6,15.1c0,0.3,0.1,0.6,0.1,0.9C18.6,15.7,18.6,15.4,18.6,15.1z"/>
<path class="st2" d="M17.7,19.8c-0.1,0.1-0.2,0.3-0.2,0.4C17.6,20.1,17.6,19.9,17.7,19.8z"/>
<path class="st2" d="M17.3,20.5c-0.1,0.1-0.2,0.3-0.3,0.4C17.1,20.8,17.2,20.7,17.3,20.5z"/>
<path class="st2" d="M16,22.1c0,0,0.1-0.1,0.1-0.1C16.1,22,16,22,16,22.1C16,22,16,22,16,22.1z"/>
<path class="st2" d="M16.7,21.3c-0.1,0.1-0.2,0.3-0.3,0.4C16.5,21.5,16.6,21.4,16.7,21.3z"/>
<g>
	<path d="M14.2,23.3c-1.2,0.6-2.5,1-3.8,1c-4.6,0-8.3-3.7-8.3-8.3s3.7-8.3,8.3-8.3c1.3,0,2.6,0.3,3.8,1c0.3-0.3,0.6-0.6,0.9-0.8
		l0.2-0.2c-1.5-0.9-3.2-1.4-5-1.4C5,6.3,0.7,10.7,0.7,16s4.3,9.7,9.7,9.7c1.6,0,3.2-0.4,4.6-1.2c0.1-0.1,0.2-0.1,0.4-0.2l-0.3-0.2
		C14.8,23.9,14.5,23.6,14.2,23.3z"/>
	<path d="M21.6,6.3c-1.8,0-3.5,0.5-5,1.4l0.2,0.2c0.3,0.3,0.6,0.5,0.9,0.8c1.2-0.6,2.5-1,3.8-1c4.6,0,8.3,3.7,8.3,8.3
		s-3.7,8.3-8.3,8.3c-1.4,0-2.7-0.3-3.8-1c-0.3,0.3-0.6,0.6-0.9,0.8l-0.2,0.2c1.5,0.9,3.2,1.4,5,1.4c5.3,0,9.7-4.3,9.7-9.7
		S27,6.3,21.6,6.3z"/>
	<path d="M17.5,22.6c0.1-0.2,0.3-0.3,0.4-0.5c0.1-0.1,0.2-0.2,0.3-0.3c0.1-0.2,0.2-0.3,0.4-0.5c0.1-0.1,0.2-0.2,0.2-0.4
		c0.1-0.2,0.2-0.3,0.3-0.5c0.1-0.1,0.1-0.3,0.2-0.4c0.1-0.2,0.2-0.4,0.2-0.6c0.1-0.1,0.1-0.3,0.1-0.4c0.1-0.2,0.1-0.4,0.2-0.6
		c0-0.1,0.1-0.3,0.1-0.4c0-0.2,0.1-0.5,0.1-0.7c0-0.1,0-0.2,0.1-0.3c0-0.3,0.1-0.7,0.1-1c0-0.4,0-0.7-0.1-1c0-0.1,0-0.2-0.1-0.3
		c0-0.2-0.1-0.5-0.1-0.7c0-0.1-0.1-0.3-0.1-0.4c-0.1-0.2-0.1-0.4-0.2-0.6c0-0.1-0.1-0.3-0.1-0.4c-0.1-0.2-0.1-0.4-0.2-0.6
		c-0.1-0.1-0.1-0.3-0.2-0.4c-0.1-0.2-0.2-0.3-0.3-0.5c-0.1-0.1-0.1-0.2-0.2-0.4c-0.1-0.2-0.2-0.3-0.4-0.5c-0.1-0.1-0.2-0.2-0.3-0.3
		c-0.1-0.2-0.3-0.3-0.4-0.5c-0.1-0.1-0.2-0.2-0.3-0.3c-0.2-0.2-0.5-0.5-0.8-0.7L16,8.1l0,0l-0.4,0.4c-0.2,0.2-0.4,0.4-0.7,0.6
		c-1.9,1.8-3,4.3-3,7c0,2.6,1.1,5.1,3,7c0.2,0.2,0.4,0.4,0.7,0.6l0.4,0.4l0,0l0.4-0.3c0.3-0.2,0.5-0.4,0.8-0.7
		C17.3,22.8,17.4,22.7,17.5,22.6z M13.4,16c0-2.3,1-4.5,2.6-6.1c0,0,0,0,0,0c0,0,0.1,0.1,0.1,0.1c0.1,0.1,0.2,0.2,0.3,0.3
		c0.1,0.1,0.2,0.2,0.3,0.4c0.1,0.1,0.2,0.2,0.2,0.3c0.1,0.1,0.2,0.3,0.3,0.4c0.1,0.1,0.1,0.2,0.2,0.3c0.1,0.1,0.2,0.3,0.2,0.4
		c0.1,0.1,0.1,0.2,0.2,0.3c0.1,0.2,0.1,0.3,0.2,0.5c0,0.1,0.1,0.2,0.1,0.3c0.1,0.2,0.1,0.3,0.1,0.5c0,0.1,0.1,0.2,0.1,0.3
		c0,0.2,0.1,0.4,0.1,0.6c0,0.1,0,0.2,0,0.3c0,0.3,0.1,0.6,0.1,0.9c0,0.3,0,0.6-0.1,0.9c0,0.1,0,0.2,0,0.3c0,0.2-0.1,0.4-0.1,0.6
		c0,0.1-0.1,0.2-0.1,0.3c0,0.2-0.1,0.3-0.1,0.5c0,0.1-0.1,0.2-0.1,0.3c-0.1,0.2-0.1,0.3-0.2,0.5c-0.1,0.1-0.1,0.2-0.2,0.3
		c-0.1,0.1-0.2,0.3-0.2,0.4c-0.1,0.1-0.1,0.2-0.2,0.3c-0.1,0.1-0.2,0.3-0.3,0.4c-0.1,0.1-0.2,0.2-0.2,0.3c-0.1,0.1-0.2,0.3-0.3,0.4
		c-0.1,0.1-0.2,0.2-0.3,0.3c0,0-0.1,0.1-0.1,0.1c0,0,0,0,0,0C14.3,20.5,13.4,18.3,13.4,16z"/>
</g>
</svg>
