<?xml version="1.0" encoding="utf-8"?>
<!-- Generator: Adobe Illustrator 22.1.0, SVG Export Plug-In . SVG Version: 6.00 Build 0)  -->
<svg version="1.1" id="Layer_1" xmlns="http://www.w3.org/2000/svg" xmlns:xlink="http://www.w3.org/1999/xlink" x="0px" y="0px"
	 viewBox="0 0 32 32" style="enable-background:new 0 0 32 32;" xml:space="preserve">
<style type="text/css">
	.st0{fill:none;}
	.st1{fill:#0AB0C1;}
	.st2{fill:#F0C71D;}
	.st3{fill:#7C9ACE;}
	.st4{fill:#C28BBE;}
	.st5{fill:#72BB75;}
	.st6{fill:#FBFCFD;}
	.st7{fill:#F27E7D;}
	.st8{fill:#FFFFFF;}
	.st9{fill:#5EB55F;}
	.st10{fill:#F3C61A;}
	.st11{fill:#4292CF;}
	.st12{fill:#9B7BB8;}
</style>
<g>
	<path class="st2" d="M14.3,8.9c-1.2-0.7-2.7-1.2-4.2-1.2c-4.6,0-8.3,3.7-8.3,8.3s3.7,8.3,8.3,8.3c1.6,0,3-0.4,4.2-1.2
		c-1.8-1.9-2.8-4.4-2.8-7.1C11.5,13.3,12.5,10.8,14.3,8.9z"/>
	<path class="st2" d="M20.5,16c0,2.7-1,5.2-2.8,7.1c1.2,0.7,2.7,1.2,4.2,1.2c4.6,0,8.3-3.7,8.3-8.3s-3.7-8.3-8.3-8.3
		c-1.6,0-3,0.4-4.2,1.2C19.5,10.8,20.5,13.3,20.5,16z"/>
	<ellipse class="st2" cx="16" cy="16" rx="2.3" ry="5.8"/>
	<g>
		<path d="M14.3,23.1c-1.2,0.7-2.7,1.2-4.2,1.2c-4.6,0-8.3-3.7-8.3-8.3s3.7-8.3,8.3-8.3c1.6,0,3,0.4,4.2,1.2
			c0.2-0.2,0.3-0.4,0.5-0.5c0.2-0.2,0.4-0.3,0.6-0.5c-1.5-1-3.4-1.6-5.3-1.6c-5.3,0-9.7,4.3-9.7,9.7s4.3,9.7,9.7,9.7
			c2,0,3.8-0.6,5.3-1.6c-0.2-0.2-0.4-0.3-0.6-0.5C14.7,23.4,14.5,23.3,14.3,23.1z"/>
		<path d="M19.5,16c0-2.5-1-4.8-2.7-6.5c-0.2-0.2-0.3-0.3-0.5-0.5c-0.1-0.1-0.2-0.2-0.4-0.3c-0.1,0.1-0.3,0.2-0.4,0.3
			c-0.2,0.2-0.3,0.3-0.5,0.5c-0.2,0.3-0.5,0.5-0.7,0.8c-0.1,0.1-0.2,0.2-0.2,0.3c0,0,0,0,0,0.1c-1.1,1.6-1.7,3.4-1.7,5.4
			c0,2.1,0.7,4.1,1.9,5.7c0.2,0.3,0.5,0.6,0.7,0.9c0.2,0.2,0.3,0.3,0.5,0.5c0.1,0.1,0.2,0.2,0.4,0.3c0.1-0.1,0.3-0.2,0.4-0.3
			c0.2-0.2,0.3-0.3,0.5-0.5C18.6,20.8,19.5,18.5,19.5,16z M16,10.2c1.5,1.5,2.3,3.5,2.3,5.8s-0.9,4.3-2.3,5.8
			c-1.5-1.5-2.3-3.5-2.3-5.8S14.5,11.7,16,10.2z"/>
		<path d="M21.9,6.3c-2,0-3.8,0.6-5.3,1.6c0.2,0.2,0.4,0.3,0.6,0.5c0.2,0.2,0.4,0.3,0.5,0.5c1.2-0.7,2.7-1.2,4.2-1.2
			c4.6,0,8.3,3.7,8.3,8.3s-3.7,8.3-8.3,8.3c-1.6,0-3-0.4-4.2-1.2c-0.2,0.2-0.3,0.3-0.5,0.5c-0.2,0.2-0.4,0.3-0.6,0.5
			c1.5,1,3.4,1.6,5.3,1.6c5.3,0,9.7-4.3,9.7-9.7S27.3,6.3,21.9,6.3z"/>
	</g>
	<path class="st6" d="M15.6,24.2l0.3,0.4c0.2-0.2,0.5-0.4,0.7-0.5c-0.2-0.1-0.4-0.3-0.5-0.4L15.6,24.2z"/>
	<path class="st6" d="M15.9,7.4l-0.2,0.3c0.1-0.1,0.2-0.2,0.3-0.3C16,7.4,15.9,7.4,15.9,7.4z"/>
	<path class="st6" d="M16.6,7.9c-0.1-0.1-0.2-0.2-0.3-0.3L16.5,8C16.5,8,16.6,7.9,16.6,7.9z"/>
	<path class="st6" d="M17.1,22.7c0.2,0.1,0.4,0.3,0.6,0.4c1.8-1.9,2.8-4.4,2.8-7.1s-1-5.2-2.8-7.1c-0.2,0.1-0.4,0.3-0.6,0.4
		c1.7,1.7,2.7,4.1,2.7,6.7S18.7,20.9,17.1,22.7z"/>
	<path class="st6" d="M19.5,16c0,2.5-1,4.8-2.7,6.5c0.1,0,0.1,0.1,0.2,0.1c1.7-1.7,2.7-4.1,2.7-6.7s-1-4.9-2.7-6.7
		c-0.1,0-0.1,0.1-0.2,0.1C18.6,11.2,19.5,13.5,19.5,16z"/>
	<path class="st6" d="M16.6,23.2c-0.1,0.1-0.3,0.2-0.4,0.3L16,23.7c0.2,0.1,0.4,0.3,0.5,0.4c0.2-0.2,0.4-0.3,0.6-0.5
		C17,23.5,16.8,23.3,16.6,23.2z"/>
	<path class="st6" d="M16.6,8.2c-0.1,0.1-0.3,0.2-0.4,0.3c0.1,0.1,0.2,0.2,0.4,0.3c0.2-0.1,0.4-0.3,0.6-0.4
		c-0.2-0.2-0.4-0.3-0.6-0.5c0,0-0.1,0-0.1,0.1L16.6,8.2z"/>
	<path class="st6" d="M17.1,22.7c-0.2,0.2-0.3,0.3-0.5,0.5c0.2,0.1,0.4,0.3,0.6,0.4c0.2-0.2,0.4-0.3,0.5-0.5
		C17.5,23,17.3,22.8,17.1,22.7z"/>
	<path class="st6" d="M17.1,9.3c0.2-0.1,0.4-0.3,0.6-0.4c-0.2-0.2-0.3-0.3-0.5-0.5c-0.2,0.1-0.4,0.3-0.6,0.4
		C16.7,9,16.9,9.1,17.1,9.3z"/>
	<path class="st6" d="M16.4,8.9c0.1,0,0.1-0.1,0.2-0.1c-0.1-0.1-0.2-0.2-0.4-0.3c-0.1,0.1-0.1,0.1-0.2,0.2
		C16.1,8.7,16.3,8.8,16.4,8.9z"/>
	<path class="st6" d="M16,23.4c0.1,0.1,0.1,0.1,0.2,0.2l0,0c0.1-0.1,0.3-0.2,0.4-0.3c-0.1,0-0.1-0.1-0.2-0.1
		C16.2,23.2,16.1,23.3,16,23.4z"/>
	<path class="st6" d="M16.9,9.5c0.1,0,0.1-0.1,0.2-0.1c-0.2-0.2-0.3-0.3-0.5-0.5c-0.1,0-0.1,0.1-0.2,0.1C16.5,9.1,16.7,9.3,16.9,9.5
		z"/>
	<path class="st6" d="M17.1,22.7c-0.1,0-0.1-0.1-0.2-0.1c-0.2,0.2-0.3,0.3-0.5,0.5c0.1,0,0.1,0.1,0.2,0.1
		C16.7,23,16.9,22.9,17.1,22.7z"/>
	<path class="st6" d="M15.7,7.7c-0.1,0.1-0.2,0.1-0.3,0.2c0,0,0.1,0,0.1,0.1L15.7,7.7z"/>
	<path class="st6" d="M15.4,24.1c0.1,0.1,0.1,0.1,0.2,0.2l0,0L15.4,24.1C15.5,24.1,15.4,24.1,15.4,24.1z"/>
	<path class="st6" d="M16.1,7.4C16.1,7.4,16,7.4,16.1,7.4c0,0.1,0.1,0.2,0.2,0.3L16.1,7.4z"/>
	<path class="st6" d="M14.9,9.3c-0.2-0.1-0.4-0.3-0.6-0.4c-1.8,1.9-2.8,4.4-2.8,7.1c0,2.7,1,5.2,2.8,7.1c0.2-0.1,0.4-0.3,0.6-0.4
		c-1.7-1.7-2.7-4.1-2.7-6.7S13.3,11.1,14.9,9.3z"/>
	<path class="st6" d="M15.4,8.8c0.1-0.1,0.2-0.2,0.4-0.3c-0.1-0.1-0.3-0.2-0.4-0.3L15.5,8c0,0-0.1,0-0.1-0.1
		c-0.2,0.2-0.4,0.3-0.6,0.5C15,8.5,15.2,8.7,15.4,8.8z"/>
	<path class="st6" d="M15.4,23.8c0.2-0.1,0.3-0.2,0.4-0.3c-0.1-0.1-0.2-0.2-0.4-0.3c-0.2,0.1-0.4,0.3-0.6,0.4
		c0.2,0.2,0.4,0.3,0.6,0.5c0,0,0.1,0,0.1-0.1L15.4,23.8z"/>
	<path class="st6" d="M14.9,9.3c0.2-0.2,0.3-0.3,0.5-0.5c-0.2-0.1-0.4-0.3-0.6-0.4c-0.2,0.2-0.4,0.3-0.5,0.5
		C14.5,9,14.7,9.2,14.9,9.3z"/>
	<path class="st6" d="M14.9,22.7c-0.2,0.1-0.4,0.3-0.6,0.4c0.2,0.2,0.3,0.4,0.5,0.5c0.2-0.1,0.4-0.3,0.6-0.4
		C15.3,23,15.1,22.9,14.9,22.7z"/>
	<path class="st6" d="M12.3,16c0-2,0.7-3.9,1.8-5.4c0,0,0,0,0-0.1c0.1-0.1,0.2-0.2,0.2-0.3c0.2-0.3,0.4-0.6,0.7-0.8
		c-0.1,0-0.1-0.1-0.2-0.1c-1.7,1.7-2.7,4.1-2.7,6.7s1,4.9,2.7,6.7c0.1,0,0.1-0.1,0.2-0.1c-0.3-0.3-0.5-0.6-0.7-0.9
		C13.1,20.1,12.3,18.2,12.3,16z"/>
	<path class="st6" d="M14.2,10.6c0.1-0.1,0.2-0.2,0.2-0.3C14.3,10.4,14.3,10.5,14.2,10.6z"/>
	<path class="st6" d="M14.1,10.6C13,12.1,12.3,14,12.3,16c0,2.2,0.8,4.1,2,5.7c-1.2-1.6-1.9-3.6-1.9-5.7
		C12.5,14.1,13.1,12.2,14.1,10.6z"/>
	<path class="st6" d="M15.6,23c-0.1,0.1-0.1,0.1-0.2,0.1c0.1,0.1,0.2,0.2,0.4,0.3c0.1-0.1,0.1-0.1,0.2-0.2
		C15.9,23.3,15.8,23.2,15.6,23z"/>
	<path class="st6" d="M16,8.7c-0.1-0.1-0.1-0.1-0.2-0.2c-0.1,0.1-0.2,0.2-0.4,0.3c0.1,0,0.1,0.1,0.2,0.1C15.7,8.8,15.9,8.7,16,8.7z"
		/>
	<path class="st6" d="M15.1,22.5c-0.1,0-0.1,0.1-0.2,0.1c0.2,0.2,0.3,0.3,0.5,0.5c0.1,0,0.1-0.1,0.2-0.1
		C15.5,22.9,15.3,22.7,15.1,22.5z"/>
	<path class="st6" d="M14.9,9.3c0.1,0,0.1,0.1,0.2,0.1c0.2-0.2,0.3-0.3,0.5-0.5c-0.1,0-0.1-0.1-0.2-0.1C15.3,9,15.1,9.1,14.9,9.3z"
		/>
	<path class="st6" d="M16,23.7c-0.2,0.1-0.3,0.3-0.5,0.4l0.1,0.2L16,23.7C16,23.7,16,23.7,16,23.7z"/>
	<path class="st6" d="M16,8.3c0.2-0.1,0.3-0.2,0.5-0.4l-0.2-0.3c-0.1-0.1-0.2-0.1-0.3-0.2c-0.1,0.1-0.2,0.2-0.3,0.3L15.5,8
		C15.7,8.1,15.8,8.2,16,8.3z"/>
	<path class="st6" d="M15.4,23.8l0.1,0.2c0.2-0.1,0.3-0.2,0.5-0.4c-0.1-0.1-0.1-0.1-0.2-0.2C15.7,23.6,15.5,23.7,15.4,23.8z"/>
	<path class="st6" d="M15.5,8l-0.1,0.2c0.2,0.1,0.3,0.2,0.4,0.3c0.1-0.1,0.1-0.1,0.2-0.2C15.8,8.2,15.7,8.1,15.5,8z"/>
	<path class="st6" d="M16.6,8.2L16.5,8c-0.2,0.1-0.3,0.2-0.5,0.4c0.1,0.1,0.1,0.1,0.2,0.2C16.3,8.4,16.5,8.3,16.6,8.2z"/>
	<path class="st6" d="M16,23.7l0.1-0.2C16.1,23.6,16.1,23.6,16,23.7C16,23.7,16,23.7,16,23.7z"/>
	<path class="st6" d="M16,23.4c-0.1,0.1-0.1,0.1-0.2,0.2c0.1,0.1,0.1,0.1,0.2,0.2c0.1,0,0.1-0.1,0.2-0.1l0,0
		C16.1,23.5,16.1,23.4,16,23.4z"/>
	<path class="st6" d="M16.2,8.5c-0.1-0.1-0.1-0.1-0.2-0.2c-0.1,0.1-0.1,0.1-0.2,0.2c0.1,0.1,0.1,0.1,0.2,0.2
		C16.1,8.6,16.1,8.5,16.2,8.5z"/>
</g>
</svg>
