<?xml version="1.0" encoding="utf-8"?>
<!-- Generator: Adobe Illustrator 22.1.0, SVG Export Plug-In . SVG Version: 6.00 Build 0)  -->
<svg version="1.1" id="Layer_1" xmlns="http://www.w3.org/2000/svg" xmlns:xlink="http://www.w3.org/1999/xlink" x="0px" y="0px"
	 viewBox="0 0 32 32" style="enable-background:new 0 0 32 32;" xml:space="preserve">
<style type="text/css">
	.st0{fill:none;}
	.st1{fill:#0AB0C1;}
	.st2{fill:#F0C71D;}
	.st3{fill:#7C9ACE;}
	.st4{fill:#C28BBE;}
	.st5{fill:#72BB75;}
	.st6{fill:#FBFCFD;}
	.st7{fill:#F27E7D;}
	.st8{fill:#FFFFFF;}
	.st9{fill:#5EB55F;}
	.st10{fill:#F3C61A;}
	.st11{fill:#4292CF;}
	.st12{fill:#9B7BB8;}
</style>
<g>
	<path class="st0" d="M17.1,22.9c1.3,0.8,2.8,1.3,4.5,1.3c4.6,0,8.3-3.7,8.3-8.3s-3.7-8.3-8.3-8.3c-1.7,0-3.2,0.5-4.5,1.3
		c1.8,1.8,2.9,4.2,2.9,6.9C20.1,18.7,19,21.1,17.1,22.9z"/>
	<path class="st4" d="M14,8.6c-1.1-0.5-2.3-0.8-3.6-0.8c-4.6,0-8.3,3.7-8.3,8.3s3.7,8.3,8.3,8.3c1.3,0,2.5-0.3,3.6-0.9
		c-1.9-1.9-3-4.5-3-7.4C11,13.1,12.1,10.5,14,8.6z"/>
	<path class="st4" d="M16,10c-1.6,1.5-2.6,3.7-2.6,6c0,2.4,1,4.5,2.7,6.1c1.7-1.5,2.6-3.7,2.6-6.1C18.6,13.6,17.6,11.5,16,10z"/>
	<g>
		<path d="M17.1,9.1c-0.2,0.1-0.4,0.3-0.6,0.4C16.4,9.6,16.2,9.8,16,10c1.6,1.5,2.6,3.7,2.6,6c0,2.3-1,4.5-2.6,6.1
			c0.2,0.2,0.4,0.3,0.5,0.5c0.2,0.1,0.4,0.3,0.6,0.4c1.8-1.8,2.9-4.3,2.9-6.9C20.1,13.3,18.9,10.8,17.1,9.1z"/>
		<path d="M10.4,7.7c1.3,0,2.5,0.3,3.6,0.8c0.2-0.2,0.4-0.4,0.6-0.5c0.2-0.2,0.4-0.3,0.6-0.5c-1.4-0.8-3-1.3-4.8-1.3
			C5,6.3,0.7,10.7,0.7,16s4.3,9.7,9.7,9.7c1.6,0,3.2-0.4,4.6-1.2c0.1,0,0.1-0.1,0.2-0.1c-0.1-0.1-0.3-0.2-0.4-0.3
			c-0.1-0.1-0.1-0.1-0.2-0.2c-0.2-0.2-0.4-0.3-0.6-0.5c-1.1,0.5-2.4,0.9-3.6,0.9c-4.6,0-8.3-3.7-8.3-8.3S5.8,7.7,10.4,7.7z"/>
	</g>
	<path d="M21.6,6.3c-2.1,0-4,0.7-5.6,1.8c-0.2,0.1-0.4,0.3-0.6,0.4c-0.2,0.2-0.4,0.3-0.6,0.5c-1.8,1.8-2.9,4.2-2.9,6.9
		c0,2.7,1.1,5.2,2.9,6.9c0.2,0.2,0.4,0.3,0.5,0.5c0.2,0.2,0.4,0.3,0.6,0.5c1.6,1.1,3.5,1.8,5.6,1.8c5.3,0,9.7-4.3,9.7-9.7
		S27,6.3,21.6,6.3z M21.6,24.3c-1.7,0-3.2-0.5-4.5-1.3c-0.2-0.1-0.4-0.3-0.6-0.4c-0.2-0.1-0.4-0.3-0.5-0.5c-1.6-1.5-2.7-3.7-2.7-6.1
		c0-2.4,1-4.5,2.6-6c0.2-0.2,0.4-0.3,0.5-0.5c0.2-0.1,0.4-0.3,0.6-0.4c1.3-0.8,2.8-1.3,4.5-1.3c4.6,0,8.3,3.7,8.3,8.3
		S26.2,24.3,21.6,24.3z"/>
</g>
</svg>
