<?xml version="1.0"?>
<svg xmlns="http://www.w3.org/2000/svg" height="512px" viewBox="0 0 512 512" width="512px" class=""><g><path d="m256 0c-141.164062 0-256 114.835938-256 256s114.835938 256 256 256 256-114.835938 256-256-114.835938-256-256-256zm0 0" fill="#4caf50" data-original="#4CAF50" class="" style="fill:#FFCE00" data-old_color="#4caf50"/><path d="m277.332031 384c0 11.78125-9.550781 21.332031-21.332031 21.332031s-21.332031-9.550781-21.332031-21.332031 9.550781-21.332031 21.332031-21.332031 21.332031 9.550781 21.332031 21.332031zm0 0" fill="#eceff1" data-original="#ECEFF1" class="active-path" style="fill:#000000" data-old_color="#eceff1"/><path d="m277.332031 298.667969c0 11.773437-9.554687 21.332031-21.332031 21.332031s-21.332031-9.558594-21.332031-21.332031v-170.667969c0-11.777344 9.554687-21.332031 21.332031-21.332031s21.332031 9.554687 21.332031 21.332031zm0 0" fill="#fafafa" data-original="#FAFAFA" class="" style="fill:#000000" data-old_color="#fafafa"/></g> </svg>
